<?xml version="1.0" standalone="no"?>
<!DOCTYPE svg PUBLIC "-//W3C//DTD SVG 20010904//EN"
 "http://www.w3.org/TR/2001/REC-SVG-20010904/DTD/svg10.dtd">
<svg version="1.0" xmlns="http://www.w3.org/2000/svg"
 width="620.000000pt" height="620.000000pt" viewBox="0 0 620.000000 620.000000"
 preserveAspectRatio="xMidYMid meet">
<metadata>
Created by potrace 1.11, written by Peter Selinger 2001-2013
</metadata>
<g transform="translate(0.000000,620.000000) scale(0.100000,-0.100000)"
fill="#000000" stroke="none">
<path d="M3275 5979 c-15 -7 -11 -8 18 -5 21 2 41 7 44 10 10 9 -40 6 -62 -5z"/>
<path d="M2818 5973 c-16 -2 -28 -9 -28 -14 0 -11 39 -2 55 12 5 5 7 8 5 8 -3
-1 -17 -4 -32 -6z"/>
<path d="M3374 5972 c9 -8 76 -9 76 -1 0 4 -18 7 -41 7 -23 1 -38 -2 -35 -6z"/>
<path d="M3333 5956 c-7 -8 -26 -13 -42 -12 -17 1 -31 -1 -31 -5 0 -3 -15 -5
-32 -3 -43 6 -141 4 -170 -2 -13 -3 -45 -7 -73 -8 -90 -6 -203 -23 -275 -42
-14 -3 -41 -8 -60 -9 -48 -5 -75 -11 -102 -26 -13 -7 -27 -12 -32 -11 -5 2
-21 -2 -35 -7 -14 -6 -35 -12 -46 -14 -11 -2 -31 -9 -45 -14 -18 -8 -29 -7
-39 1 -11 8 -13 8 -7 -1 4 -8 2 -13 -5 -13 -16 0 -189 -69 -216 -86 -12 -8
-28 -14 -34 -14 -6 0 -43 -16 -80 -35 -38 -19 -69 -32 -69 -29 0 4 -12 -1 -26
-11 -15 -9 -23 -12 -19 -5 4 6 -11 0 -34 -14 -43 -28 -61 -32 -61 -16 0 6 -12
2 -27 -8 -16 -11 -54 -36 -85 -56 -32 -20 -58 -42 -58 -47 0 -6 -5 -7 -10 -4
-6 3 -13 -1 -16 -9 -3 -9 -14 -16 -24 -16 -11 0 -22 -5 -26 -12 -4 -7 -3 -8 4
-4 22 13 12 0 -20 -29 -19 -17 -29 -22 -25 -12 4 10 2 17 -3 17 -6 0 -10 -4
-10 -9 0 -5 -14 -14 -31 -21 -18 -8 -28 -18 -25 -26 3 -7 0 -16 -6 -20 -7 -4
-8 -3 -4 4 4 7 4 12 -1 12 -15 0 -38 -19 -38 -32 0 -7 -7 -13 -15 -13 -8 0
-30 -16 -49 -35 -19 -19 -31 -29 -27 -22 7 11 4 11 -13 0 -12 -7 -24 -21 -27
-30 -3 -10 -10 -18 -15 -18 -12 0 -109 -97 -109 -109 0 -5 -8 -19 -19 -32 -10
-13 -21 -35 -25 -49 -7 -24 -6 -24 19 5 14 17 37 43 49 58 14 16 26 24 30 19
3 -6 -3 -13 -13 -17 -11 -3 -23 -14 -26 -24 -8 -26 -73 -93 -84 -87 -4 3 -16
-3 -26 -14 -10 -11 -22 -17 -26 -14 -5 3 -9 -3 -9 -14 0 -10 -8 -27 -17 -38
-10 -11 -22 -27 -28 -36 -5 -9 -38 -57 -73 -108 -35 -50 -77 -119 -95 -152
-46 -86 -53 -98 -67 -111 -7 -7 2 17 20 53 20 39 26 59 16 51 -9 -7 -16 -20
-16 -27 0 -8 -3 -13 -7 -12 -5 2 -10 -1 -12 -7 -2 -5 -12 -21 -22 -34 -11 -13
-19 -32 -19 -42 0 -9 -5 -19 -10 -21 -6 -2 -12 -13 -14 -24 -3 -12 -13 -39
-24 -60 -15 -31 -40 -95 -47 -124 -1 -3 -5 -12 -8 -20 -4 -8 -8 -24 -10 -35
-2 -11 -11 -37 -21 -57 -48 -111 -55 -137 -60 -223 -4 -63 -5 -67 -18 -59 -9
5 -9 2 1 -9 9 -11 10 -17 2 -17 -6 0 -11 -7 -11 -15 0 -9 -9 -44 -19 -78 -11
-34 -22 -82 -25 -107 -3 -25 -7 -55 -10 -67 -15 -72 -26 -343 -14 -343 4 0 4
-10 -1 -22 -5 -14 -3 -31 5 -47 10 -20 11 -28 1 -40 -9 -12 -9 -13 1 -7 6 4
12 4 13 -1 0 -4 2 -26 4 -48 3 -37 2 -38 -7 -12 -7 21 -13 25 -23 17 -10 -8
-12 38 -10 227 2 131 7 255 13 276 6 21 6 37 1 37 -5 0 -9 -3 -10 -7 0 -5 -2
-17 -4 -28 -3 -11 -7 -47 -10 -80 -3 -33 -7 -87 -10 -120 -7 -68 -6 -279 0
-370 10 -143 31 -320 40 -334 2 -4 6 -18 9 -32 2 -13 11 -51 20 -84 9 -33 17
-75 18 -92 1 -18 6 -33 11 -33 5 0 7 -9 4 -20 -3 -10 -1 -20 4 -22 4 -2 11
-18 14 -37 3 -18 12 -46 21 -62 8 -16 12 -29 8 -29 -4 0 -2 -6 4 -12 6 -7 11
-16 11 -21 2 -24 32 -77 41 -72 5 3 10 8 10 11 0 3 -5 2 -12 -2 -8 -5 -9 -2
-5 9 3 9 2 19 -3 22 -13 8 0 36 14 29 6 -3 2 2 -8 10 -11 9 -17 16 -13 16 4 0
1 13 -8 30 -8 16 -15 33 -14 36 0 4 -5 10 -12 15 -10 6 -10 11 0 22 8 10 9 17
1 22 -5 3 -10 17 -10 31 0 16 -4 23 -11 18 -8 -5 -8 -1 0 14 7 12 7 23 2 27
-5 3 -11 -3 -14 -12 -2 -10 -3 6 -1 34 1 29 -1 53 -6 53 -4 0 -10 11 -12 25
-4 16 -1 22 6 18 6 -4 6 0 -1 9 -7 8 -10 18 -7 21 3 3 2 12 -2 19 -8 12 -11
36 -13 112 -1 23 -4 26 -15 17 -11 -10 -14 -9 -12 3 6 44 41 7 50 -54 15 -96
25 -140 45 -194 11 -32 18 -63 15 -68 -3 -5 -1 -15 5 -22 6 -7 13 -28 15 -47
3 -19 5 -36 6 -39 1 -3 3 -9 4 -15 1 -5 8 -23 16 -40 7 -16 14 -34 16 -40 6
-28 37 -111 44 -120 4 -5 10 -23 14 -40 4 -16 16 -35 27 -43 11 -7 17 -17 14
-22 -8 -12 18 -72 38 -89 10 -7 17 -19 17 -25 0 -14 74 -150 90 -166 3 -3 23
-34 44 -70 22 -36 65 -99 95 -140 31 -41 56 -77 56 -80 0 -3 20 -25 45 -50 25
-26 61 -66 80 -90 19 -25 38 -47 43 -49 5 -2 39 -34 75 -73 37 -38 76 -74 87
-80 l20 -11 -20 24 c-11 13 -26 28 -33 32 -7 5 -10 12 -7 17 3 4 -18 27 -45
51 -27 24 -50 47 -50 51 0 4 -20 28 -45 53 -25 25 -43 50 -40 55 3 6 0 10 -7
10 -8 0 -20 10 -28 22 -8 11 -23 28 -33 37 -9 8 -17 20 -17 25 0 5 -9 16 -20
26 -37 32 -186 258 -182 276 1 6 -5 17 -13 24 -8 7 -15 16 -15 21 0 5 -12 28
-27 52 -35 54 -73 128 -73 145 0 6 -4 12 -10 12 -5 0 -13 12 -16 27 -4 16 -12
34 -18 42 -8 11 -8 15 2 18 14 5 17 24 2 20 -5 -1 -18 15 -28 35 -13 24 -16
38 -8 38 6 0 3 7 -7 14 -9 7 -17 20 -17 29 0 9 -6 22 -13 29 -7 7 -13 20 -13
28 0 8 -6 35 -13 60 -7 25 -12 45 -12 45 1 0 -7 25 -17 55 -11 30 -19 57 -20
60 -3 30 -15 90 -23 108 -7 17 -6 21 2 16 8 -5 9 -3 4 7 -5 7 -10 20 -11 29
-1 8 -4 29 -7 45 -3 17 -9 53 -13 80 -3 28 -8 59 -10 70 -3 20 -3 20 11 1 8
-11 15 -27 16 -35 0 -9 3 -25 5 -36 3 -11 7 -42 10 -70 3 -27 10 -55 15 -61 5
-6 6 -20 2 -29 -4 -12 -3 -16 4 -12 7 4 10 0 8 -10 -1 -10 2 -24 8 -31 5 -7 7
-15 4 -18 -3 -4 0 -13 8 -20 8 -8 12 -24 10 -35 -3 -12 -2 -19 2 -15 3 3 13 0
22 -7 14 -11 15 -10 1 7 -8 10 -16 25 -18 35 -9 44 -9 61 -1 55 5 -3 7 -9 4
-14 -3 -5 4 -26 15 -47 13 -24 16 -41 10 -47 -13 -13 -13 -36 1 -36 5 0 7 4 4
10 -3 5 -2 10 2 10 8 0 49 -129 45 -142 -1 -5 3 -8 8 -8 6 0 10 -7 10 -15 0
-9 7 -26 16 -39 9 -15 11 -27 5 -30 -13 -9 -41 22 -35 38 3 8 1 17 -4 20 -5 3
-7 -7 -5 -22 2 -15 5 -32 5 -38 1 -6 14 -10 30 -9 15 1 28 -2 28 -7 0 -5 13
-44 29 -86 44 -115 44 -116 43 -124 -1 -5 5 -8 14 -8 11 0 15 -6 11 -20 -3
-11 -1 -18 3 -15 5 3 11 1 15 -5 3 -5 2 -10 -4 -10 -6 0 8 -19 29 -42 22 -23
41 -47 41 -55 1 -7 2 -18 3 -24 0 -6 8 -16 16 -22 26 -21 61 -77 55 -87 -4 -6
-1 -9 5 -8 6 2 21 -13 33 -33 40 -66 101 -139 116 -139 8 0 12 -2 9 -5 -4 -4
329 -340 417 -421 22 -20 63 -50 90 -68 28 -18 56 -40 64 -49 7 -10 22 -17 32
-17 11 0 19 -4 19 -10 0 -5 17 -18 38 -29 214 -111 218 -113 182 -81 -19 16
-44 38 -55 47 -11 10 -23 17 -27 16 -7 -3 -12 12 -9 29 0 4 -5 5 -13 2 -8 -3
-17 0 -22 7 -5 8 -3 10 6 4 9 -6 11 -4 6 4 -5 7 -15 10 -23 7 -8 -3 -11 -1 -8
4 4 6 -4 19 -17 30 l-23 20 39 -16 c21 -8 45 -22 53 -30 8 -8 25 -17 39 -20
13 -3 24 -10 24 -16 0 -5 4 -7 8 -4 5 3 21 -4 38 -15 16 -10 38 -19 50 -19 11
0 26 -6 33 -12 8 -7 11 -8 8 -2 -3 6 -44 32 -89 59 -92 52 -248 155 -248 162
0 5 73 -38 80 -47 15 -20 168 -103 280 -154 67 -30 206 -78 325 -112 153 -45
148 -44 228 -54 37 -5 75 -14 85 -19 11 -6 24 -6 33 0 10 6 10 9 2 9 -7 0 -13
5 -13 10 0 10 53 5 72 -6 4 -3 8 -1 8 5 0 6 -17 13 -37 18 -21 4 -41 8 -45 9
-5 1 -13 2 -19 3 -5 0 -8 5 -4 10 3 6 21 8 40 7 55 -6 41 9 -22 24 -32 8 -60
14 -63 15 -18 4 -121 27 -127 27 -12 2 -112 34 -178 58 -96 35 -235 104 -235
118 0 6 -4 13 -10 13 -5 1 -13 2 -17 3 -8 1 -41 27 -67 52 -7 6 -21 14 -33 18
-12 4 -27 13 -33 21 -10 12 -9 15 6 15 11 0 -6 15 -39 33 -31 17 -65 39 -75
47 -10 8 -58 49 -107 90 -219 181 -366 338 -480 510 -16 25 -47 68 -67 96 -37
49 -47 71 -30 60 5 -3 9 2 9 10 0 8 -6 13 -13 10 -13 -5 -81 73 -76 88 1 4 -2
14 -8 20 -5 7 -7 16 -3 19 3 4 2 7 -4 7 -6 0 -21 17 -32 38 -20 34 -20 35 -2
14 11 -13 24 -21 28 -19 5 3 19 0 32 -7 15 -9 20 -16 12 -20 -6 -4 -11 -3 -11
2 0 5 -7 9 -16 9 -14 0 -14 -2 -3 -11 8 -6 20 -22 27 -36 l12 -25 -5 28 c-6
31 0 30 40 -2 13 -10 10 -3 -8 19 -35 46 -62 95 -47 85 7 -4 11 -4 8 1 -20 42
-40 91 -43 103 -2 9 -10 36 -19 61 -12 37 -13 42 0 26 7 -11 14 -24 14 -28 0
-10 49 -118 87 -193 46 -90 196 -323 236 -367 22 -24 38 -44 36 -44 -5 -2 205
-217 257 -265 125 -113 270 -210 468 -314 37 -20 70 -35 72 -33 2 2 -27 19
-64 38 -37 18 -69 36 -72 40 -3 3 -23 17 -45 30 -22 13 -59 39 -82 57 -24 19
-43 32 -43 30 0 -3 -16 11 -35 30 -20 20 -39 32 -46 27 -8 -4 -9 -3 -5 4 4 7
4 12 -1 12 -4 0 -19 9 -32 19 -18 14 -21 20 -11 26 9 5 11 4 6 -3 -4 -7 -2
-12 4 -12 12 0 102 -69 108 -83 2 -4 8 -5 13 -1 5 3 9 0 9 -7 0 -7 3 -9 7 -6
3 4 12 -2 20 -13 8 -11 22 -20 32 -20 10 0 36 -13 57 -28 21 -15 59 -38 84
-51 25 -12 52 -26 60 -31 21 -13 219 -104 255 -117 17 -6 62 -23 101 -37 80
-30 76 -29 239 -57 139 -24 188 -28 196 -16 4 5 49 11 100 13 103 3 220 12
259 18 14 3 61 10 105 17 44 6 86 16 93 22 7 6 23 11 35 12 12 1 29 5 37 8 8
4 24 8 35 11 70 13 84 19 82 36 -1 12 -7 16 -22 13 -17 -4 -16 -2 5 11 14 8
32 15 41 16 16 0 71 23 99 41 8 5 30 16 48 24 21 10 32 22 30 32 -2 10 9 23
26 32 17 9 57 33 90 54 61 38 61 39 24 33 -31 -5 -38 -3 -38 10 0 11 5 14 16
10 14 -5 15 -4 4 8 -10 13 -7 15 22 13 30 -3 34 0 34 20 0 13 -5 22 -10 19
-124 -51 -174 -69 -186 -69 -8 0 -21 -5 -28 -10 -19 -15 -52 -19 -52 -6 0 5
-5 7 -10 4 -6 -4 -8 -10 -6 -14 3 -4 -1 -8 -9 -8 -8 0 -11 5 -8 11 4 6 -4 2
-16 -9 -13 -11 -26 -19 -30 -19 -3 1 -10 0 -16 -1 -80 -20 -193 -38 -222 -36
-7 1 -19 1 -25 2 -7 0 -44 -2 -83 -6 -126 -12 -180 -13 -192 -2 -9 6 -13 6
-13 -1 0 -6 -6 -9 -14 -6 -8 3 -27 7 -43 8 -15 2 -35 6 -43 9 -24 9 -123 31
-150 33 -14 1 -25 2 -25 4 0 1 -11 3 -25 5 -51 6 -105 17 -120 25 -8 4 -40 13
-70 20 -87 19 -164 43 -180 55 -8 7 -31 18 -50 25 -34 13 -141 67 -226 114
-41 23 -188 132 -218 161 -9 9 -16 14 -16 11 0 -3 -21 18 -47 46 -76 82 -93
98 -103 98 -6 0 -10 5 -10 11 0 6 -18 33 -40 59 -22 26 -44 59 -50 74 -5 15
-14 25 -19 22 -5 -3 -12 1 -15 10 -4 10 -2 13 6 8 7 -4 2 7 -11 24 -12 18 -20
36 -17 41 3 5 -6 21 -20 36 -14 15 -28 40 -31 57 -3 16 -12 32 -19 35 -8 3
-14 9 -14 13 0 5 -5 21 -12 37 -6 15 -12 30 -13 33 -8 33 -38 111 -45 115 -4
3 -8 20 -8 39 0 19 -3 45 -6 57 -4 18 -2 16 8 -5 9 -21 15 -25 20 -15 3 8 3 4
1 -8 -3 -12 -1 -24 5 -28 6 -3 8 -10 5 -15 -3 -5 -1 -11 5 -15 8 -5 31 -49 42
-80 1 -6 29 -56 61 -113 32 -56 56 -106 53 -110 -2 -4 6 -8 20 -8 13 0 24 4
24 9 0 5 -7 6 -15 3 -10 -3 -15 -1 -13 8 2 7 -8 28 -22 46 -40 52 -83 137
-130 258 -24 61 -47 112 -52 112 -4 0 -8 15 -8 33 0 42 -10 78 -20 72 -4 -3
-11 2 -14 11 -4 10 -2 13 6 8 8 -5 9 1 3 22 -8 33 -13 56 -14 67 -1 4 -6 7
-12 7 -5 0 -7 -6 -3 -12 6 -10 4 -10 -6 -1 -22 21 -29 151 -9 163 8 6 8 9 -2
12 -12 4 -12 7 0 21 7 10 9 17 4 17 -8 0 -13 24 -17 90 -1 14 1 40 5 58 4 17
3 35 -2 38 -6 3 -7 13 -5 22 3 10 8 42 11 72 7 67 44 260 52 274 4 6 8 24 10
40 6 51 24 107 33 101 5 -3 11 -1 15 5 3 5 1 10 -5 10 -5 0 1 17 15 38 13 20
43 74 66 120 23 45 46 82 51 82 4 0 8 6 8 13 0 22 70 118 82 111 7 -4 8 -3 4
4 -4 7 -4 17 0 23 4 8 9 7 15 -2 5 -9 10 -5 14 14 4 15 10 25 14 23 3 -2 15 8
25 22 11 14 13 22 6 17 -8 -5 -11 -4 -7 2 4 6 16 13 28 16 16 4 19 2 14 -11
-3 -9 5 -4 19 13 13 16 23 34 21 40 -1 5 0 6 3 2 2 -4 11 -2 20 5 14 12 14 10
3 -10 -20 -38 -7 -35 35 8 21 22 43 40 48 40 5 0 24 16 43 35 18 19 35 34 36
34 11 -2 36 15 32 21 -3 5 4 11 15 15 11 3 20 11 20 16 0 5 8 9 19 9 10 0 24
7 31 15 7 9 15 13 18 10 3 -3 11 0 19 7 7 6 16 8 19 5 3 -3 -16 -20 -41 -39
-26 -18 -58 -43 -71 -55 -14 -13 -30 -22 -36 -20 -6 1 -12 -3 -15 -10 -7 -20
34 -6 64 21 15 14 31 27 35 27 5 1 11 2 16 3 8 1 85 47 92 56 3 3 30 18 60 35
49 26 72 37 134 67 10 5 28 12 40 14 38 9 51 12 51 14 0 1 11 3 24 6 14 2 30
9 37 15 7 6 23 7 36 3 22 -7 22 -7 3 -16 -15 -6 -11 -7 13 -3 22 3 31 1 26 -6
-4 -7 -21 -9 -40 -6 -43 7 -77 -2 -70 -19 3 -9 -2 -14 -13 -14 -10 0 -22 -7
-25 -16 -5 -13 -4 -14 7 -6 8 7 16 9 19 6 3 -2 21 2 39 10 105 46 209 78 257
78 28 0 52 4 52 8 0 4 16 7 35 8 21 1 33 -3 30 -8 -4 -6 7 -7 27 -2 29 6 97 7
191 3 20 -1 26 -5 21 -13 -6 -10 -5 -10 7 -1 12 10 19 10 35 -1 10 -7 45 -19
77 -26 32 -7 60 -17 63 -22 3 -4 21 -8 40 -8 19 0 34 -4 34 -10 0 -5 6 -10 14
-10 8 0 17 -7 20 -16 3 -8 11 -12 17 -9 6 4 8 14 5 22 -4 11 -2 13 9 9 9 -3
15 0 15 8 0 9 8 12 25 8 28 -5 34 -22 8 -22 -12 -1 -8 -6 13 -18 52 -29 76
-50 70 -60 -3 -5 5 -9 17 -9 12 0 40 -12 61 -27 41 -28 56 -32 56 -16 0 14 62
12 85 -3 18 -12 40 -14 102 -9 15 1 21 7 17 17 -9 22 26 32 41 12 7 -9 15 -14
18 -10 4 3 7 -1 7 -10 0 -9 5 -17 11 -17 5 0 7 6 4 13 -4 6 3 1 14 -12 12 -13
21 -31 21 -41 0 -10 10 -24 23 -33 38 -25 102 -88 99 -98 -1 -5 3 -9 9 -9 5 0
8 -4 4 -9 -3 -6 -30 1 -61 16 -30 14 -58 23 -60 20 -14 -14 22 -46 85 -76 39
-18 71 -37 71 -42 0 -16 29 -10 79 15 46 24 49 28 71 98 12 40 23 78 25 83 1
6 -2 18 -7 27 -13 26 -18 119 -5 111 6 -4 8 10 5 41 -7 57 8 60 42 8 14 -20
32 -44 41 -52 21 -20 30 -48 17 -52 -5 -2 26 -76 70 -163 44 -88 85 -183 92
-211 16 -75 21 -132 10 -139 -6 -4 -10 -1 -10 5 0 6 -4 8 -10 5 -16 -10 -12
-62 6 -80 15 -15 15 -17 -1 -29 -26 -19 -30 -82 -7 -102 14 -11 18 -27 16 -56
-4 -60 15 -32 21 30 2 29 0 63 -5 76 -6 18 -5 28 5 36 17 14 30 -7 40 -63 4
-20 12 -37 17 -37 6 0 7 11 4 25 -4 17 -1 31 8 40 8 8 13 27 11 42 -3 28 19
83 33 83 10 0 62 -66 62 -79 0 -14 16 -22 50 -26 29 -4 35 2 31 33 -1 6 2 12
7 12 9 0 18 -18 41 -82 14 -37 38 -27 47 19 6 33 3 39 -31 67 -31 26 -38 40
-41 72 -2 40 -48 183 -62 193 -4 4 -13 18 -21 33 -8 16 -17 26 -19 23 -3 -3
-16 12 -30 32 -29 42 -48 66 -82 102 -14 15 -43 49 -65 77 -21 27 -99 108
-173 179 -141 138 -136 129 -144 235 -2 26 -9 38 -28 47 -21 10 -22 12 -6 13
19 0 19 0 0 22 -16 18 -13 17 21 -5 41 -28 101 -94 92 -104 -3 -2 5 -25 19
-50 13 -25 24 -51 24 -58 0 -6 11 -17 25 -23 14 -6 25 -16 25 -22 0 -5 7 -10
15 -10 8 0 15 -4 15 -8 0 -8 70 -13 82 -6 4 3 0 24 -8 47 l-15 42 23 -27 c22
-25 81 -117 83 -128 2 -16 23 -39 45 -50 29 -15 34 -19 121 -99 36 -34 70 -61
76 -61 15 0 31 41 27 72 -2 25 -1 27 18 17 18 -10 19 -8 13 12 -4 12 -16 36
-26 53 -21 34 -25 66 -9 66 6 0 10 -8 10 -17 0 -10 5 -25 10 -33 8 -11 9 -9 6
12 -6 33 -24 68 -36 68 -5 0 -7 7 -4 15 3 8 -4 28 -16 45 -17 24 -20 34 -11
43 9 9 11 8 6 -5 -4 -10 -3 -18 3 -18 13 0 10 21 -9 51 -8 13 -24 43 -34 66
-11 24 -23 43 -26 43 -4 0 -10 8 -13 18 -4 9 16 -7 45 -35 47 -48 69 -63 69
-47 0 3 -20 31 -44 62 -24 31 -44 62 -45 67 0 6 -5 10 -11 10 -5 0 -26 18 -48
40 -46 48 -207 185 -216 185 -8 0 -97 59 -106 70 -3 3 -36 26 -75 50 -38 24
-64 36 -57 28 6 -8 32 -28 57 -43 24 -16 43 -31 40 -33 -2 -3 -16 3 -29 12
-29 18 -50 21 -41 5 4 -5 -14 10 -40 35 -27 27 -52 43 -60 39 -8 -3 -15 -1
-15 4 0 10 -53 43 -70 43 -6 0 -8 -4 -5 -10 10 -16 -4 -12 -61 17 -29 14 -57
37 -63 49 -8 18 -7 22 3 18 8 -3 17 -1 20 5 8 12 -20 41 -40 41 -10 0 -12 5
-8 13 6 9 4 9 -8 -1 -14 -11 -18 -11 -25 1 -4 8 -15 17 -23 21 -8 3 -2 4 13 1
15 -3 32 -3 38 1 13 7 -82 70 -130 85 -20 6 -42 16 -48 22 -10 7 -13 4 -13
-12 0 -13 -6 -21 -16 -21 -16 0 -81 16 -114 28 -8 3 -25 6 -37 7 -11 1 -34 7
-50 12 -15 6 -49 16 -74 23 -27 7 -46 17 -46 26 0 8 5 13 11 12 6 -1 23 1 39
5 38 10 37 45 -3 58 -16 6 -30 14 -30 18 0 10 -73 26 -197 45 -85 13 -205 21
-263 16 -70 -5 -145 0 -132 9 8 4 23 8 35 7 12 -1 27 4 32 11 14 17 261 18
291 1 5 -3 28 -5 51 -5 23 0 54 -4 70 -8 15 -4 39 -9 53 -11 29 -5 93 -17 100
-19 3 -1 28 -5 55 -9 28 -5 60 -14 72 -22 12 -8 39 -16 60 -19 21 -3 44 -8 52
-11 8 -2 30 -7 50 -10 20 -3 43 -10 52 -15 9 -4 20 -5 24 -1 5 4 5 2 1 -5 -4
-7 0 -11 11 -11 18 2 60 -15 140 -54 23 -11 46 -17 52 -13 6 3 11 1 11 -6 0
-8 4 -8 15 1 13 11 18 11 28 0 10 -10 8 -12 -7 -6 -16 6 -17 4 -6 -9 11 -13
15 -13 21 -3 7 10 11 10 21 -1 11 -12 10 -13 -2 -6 -9 5 -12 4 -7 -1 10 -10
67 -15 67 -5 -1 7 -114 61 -132 62 -7 0 -40 15 -73 34 -72 41 -142 74 -164 79
-9 2 -29 9 -46 15 -40 17 -171 61 -193 66 -9 1 -37 9 -62 16 -25 7 -49 13 -55
14 -5 0 -15 3 -20 7 -6 4 -41 8 -78 10 -37 1 -67 5 -67 8 0 3 -25 6 -55 7 -35
2 -54 -1 -50 -7 4 -6 -14 -10 -45 -10 -34 0 -49 4 -45 11 4 6 13 8 21 5 7 -3
16 -1 19 3 6 11 -21 34 -33 28 -4 -3 -14 -2 -22 3 -8 5 22 7 73 5 48 -2 91 -6
95 -9 5 -3 31 -8 58 -11 27 -3 68 -11 92 -17 23 -6 45 -8 48 -5 3 3 18 1 33
-5 54 -21 197 -61 229 -64 19 -2 48 -11 65 -20 18 -9 45 -18 60 -20 16 -2 45
-13 65 -24 74 -39 156 -70 164 -62 5 5 -5 16 -24 25 -18 9 -29 17 -24 17 15 0
-44 50 -59 50 -8 0 -29 9 -47 20 -18 11 -41 20 -50 20 -10 0 -18 5 -18 10 0 6
-13 10 -29 10 -17 0 -33 5 -36 10 -3 6 -17 10 -31 10 -14 0 -37 6 -52 14 -36
18 -182 59 -207 58 -10 -1 -26 4 -34 11 -11 9 -13 9 -8 0 6 -9 -1 -9 -24 -3
-29 9 -53 13 -139 26 -14 2 -63 6 -110 9 -141 9 -170 14 -163 31 6 17 2 17
-14 0z m-37 -78 c4 -5 -26 -9 -67 -9 -41 -1 -85 -3 -99 -4 -64 -8 -178 -17
-205 -16 -33 0 -82 -16 -105 -34 -20 -17 -82 -25 -77 -11 2 6 17 10 34 8 17
-2 34 1 37 7 4 6 -2 8 -13 6 -15 -3 -18 0 -14 12 4 11 2 14 -5 9 -7 -4 -12 -3
-12 2 0 15 35 21 55 9 13 -7 16 -6 11 2 -4 6 -2 11 3 11 6 0 11 -4 11 -10 0
-5 5 -10 11 -10 5 0 7 5 4 10 -3 6 4 10 17 10 47 1 182 11 185 14 7 6 222 0
229 -6z m94 -13 c-7 -8 -20 -15 -29 -15 -11 0 -8 5 9 14 33 19 35 19 20 1z
m-83 -20 c0 -6 -21 -11 -47 -11 -30 -1 -47 3 -47 11 0 7 17 11 47 11 26 0 47
-5 47 -11z m26 0 c-3 -9 -8 -14 -10 -11 -3 3 -2 9 2 15 9 16 15 13 8 -4z m94
-1 c-3 -3 -12 -4 -19 -1 -8 3 -5 6 6 6 11 1 17 -2 13 -5z m-520 -20 c-3 -3
-12 -4 -19 -1 -8 3 -5 6 6 6 11 1 17 -2 13 -5z m63 2 c0 -3 -4 -8 -10 -11 -5
-3 -10 -1 -10 4 0 6 5 11 10 11 6 0 10 -2 10 -4z m-250 -15 c0 -9 -51 -32 -80
-36 -24 -4 -213 -55 -222 -61 -4 -3 -8 -1 -8 5 0 8 26 22 40 20 3 0 17 4 31
10 15 5 47 13 70 16 24 3 50 14 57 22 6 9 12 12 12 6 0 -14 41 -6 80 17 20 12
20 12 20 1z m270 -20 c0 -9 -26 -15 -105 -26 -22 -3 -45 -8 -52 -10 -7 -2 -15
0 -17 4 -5 8 22 14 119 28 22 3 42 7 44 9 7 6 11 5 11 -5z m140 -64 c0 -7 -16
-13 -35 -14 -19 -1 -35 3 -35 9 0 7 -4 7 -12 1 -7 -5 -33 -11 -58 -12 -25 -2
-48 -5 -52 -8 -5 -2 -8 1 -8 6 0 6 6 11 13 12 24 1 102 11 104 13 1 1 20 2 43
3 25 1 40 -2 40 -10z m-730 -16 c0 -8 -40 -24 -65 -26 -5 0 -14 -3 -20 -6 -5
-3 -19 -9 -30 -13 -18 -6 -18 -5 -5 8 12 11 53 27 118 45 1 1 2 -3 2 -8z m495
-3 c5 4 5 2 2 -4 -6 -10 -30 -15 -127 -30 -36 -5 -87 -15 -118 -24 -18 -4 -30
-5 -27 0 7 11 83 29 188 44 29 5 45 11 41 18 -4 7 0 6 13 -1 11 -6 24 -7 28
-3z m315 -57 c0 -14 -29 -21 -36 -9 -4 7 -3 8 4 4 7 -4 12 -2 12 3 0 6 5 11
10 11 6 0 10 -4 10 -9z m280 -6 c19 -4 47 -7 63 -6 15 1 27 -3 27 -7 0 -5 -6
-9 -12 -9 -7 -1 -63 -4 -125 -8 -79 -6 -116 -5 -126 3 -8 7 -17 9 -20 5 -4 -3
-7 -1 -7 6 0 9 -8 11 -21 8 -24 -6 -51 1 -44 12 5 10 218 6 265 -4z m-1741
-178 c-52 -39 -110 -76 -104 -68 3 6 1 11 -6 11 -18 0 -5 10 20 15 12 2 34 13
49 24 15 11 31 21 36 21 5 0 7 -1 5 -3z m-624 -527 c-3 -5 -11 -10 -16 -10 -6
0 -7 5 -4 10 3 6 11 10 16 10 6 0 7 -4 4 -10z m-89 -55 c-32 -42 -44 -47 -19
-7 23 35 37 51 42 46 2 -2 -8 -19 -23 -39z m4019 -73 c-3 -3 -11 0 -18 7 -9
10 -8 11 6 5 10 -3 15 -9 12 -12z m-2145 -86 c0 -3 -4 -8 -10 -11 -5 -3 -10
-1 -10 4 0 6 5 11 10 11 6 0 10 -2 10 -4z m-60 -16 c0 -5 -4 -10 -10 -10 -5 0
-10 5 -10 10 0 6 5 10 10 10 6 0 10 -4 10 -10z m-65 -10 c3 -5 1 -10 -4 -10
-6 0 -11 5 -11 10 0 6 2 10 4 10 3 0 8 -4 11 -10z m-7 -25 c4 -4 -1 -5 -10 -2
-21 7 -55 -38 -35 -47 6 -3 0 -5 -14 -3 -14 1 -32 -3 -40 -10 -8 -6 -37 -18
-66 -26 -28 -9 -69 -24 -90 -35 -21 -11 -59 -31 -85 -44 -27 -13 -48 -26 -48
-30 0 -5 -5 -8 -11 -8 -6 0 -9 7 -5 15 3 8 3 22 0 30 -8 21 -37 11 -97 -32
-26 -20 -50 -33 -52 -31 -8 7 26 48 39 48 8 0 19 7 26 15 7 8 16 13 20 10 4
-2 16 4 26 14 11 10 32 21 47 25 15 3 27 11 27 16 0 6 6 10 14 10 7 0 19 7 26
15 6 8 15 14 18 13 4 -1 26 8 50 20 23 12 42 20 42 17 0 -4 10 1 22 9 16 11
25 13 35 4 9 -7 17 -7 28 2 8 7 15 10 15 7 0 -3 12 -2 28 2 33 9 80 7 90 -4z
m1300 -148 c4 -20 -9 -22 -26 -5 -17 17 -15 27 6 24 9 -2 18 -10 20 -19z
m-1873 -87 c-3 -5 -11 -10 -16 -10 -6 0 -7 5 -4 10 3 6 11 10 16 10 6 0 7 -4
4 -10z m-1484 -47 c-9 -16 -10 -15 -9 9 2 16 6 24 11 19 5 -5 5 -17 -2 -28z
m-11 -27 c0 -3 -4 -8 -10 -11 -5 -3 -10 -1 -10 4 0 6 5 11 10 11 6 0 10 -2 10
-4z m3743 -45 c6 -25 -17 -35 -43 -19 -18 11 -18 12 3 24 31 17 34 16 40 -5z
m-2481 -93 c-7 -7 -12 -8 -12 -2 0 14 12 26 19 19 2 -3 -1 -11 -7 -17z m-1392
-122 c0 -3 -4 -8 -10 -11 -5 -3 -10 -1 -10 4 0 6 5 11 10 11 6 0 10 -2 10 -4z
m-27 -51 c-3 -9 -8 -14 -10 -11 -3 3 -2 9 2 15 9 16 15 13 8 -4z m48 -12 c-8
-15 -10 -15 -11 -2 0 17 10 32 18 25 2 -3 -1 -13 -7 -23z m0 -47 c-7 -8 -11
-20 -10 -28 4 -19 -23 -118 -33 -118 -4 0 -3 11 2 24 5 13 6 26 3 29 -3 3 -1
12 3 19 5 7 9 22 10 34 1 31 12 54 25 54 8 0 8 -4 0 -14z m-36 -172 c-11 -11
-13 -20 -6 -28 8 -9 6 -13 -4 -13 -8 0 -15 4 -15 9 0 17 20 48 31 48 6 0 3 -7
-6 -16z m-18 -88 c-6 -17 -11 -65 -11 -107 -1 -43 -4 -75 -7 -73 -4 2 -7 -12
-7 -32 0 -19 -3 -38 -6 -41 -3 -4 0 -13 8 -22 10 -12 12 -31 8 -71 l-6 -55 -6
40 c-3 22 -2 46 3 53 6 8 5 12 -5 12 -8 0 -14 -10 -15 -22 0 -13 -3 -97 -7
-188 -4 -113 -3 -160 4 -150 6 9 10 10 10 3 0 -6 -4 -14 -9 -17 -8 -5 -8 -89
-1 -106 1 -3 2 -9 1 -14 -1 -4 -2 -23 -3 -42 -1 -35 -17 -48 -20 -16 0 9 -2
28 -4 42 -8 70 -10 349 -3 373 5 18 4 25 -3 21 -7 -4 -7 2 -2 17 4 13 8 36 8
52 1 15 5 27 10 27 5 0 2 8 -5 17 -12 15 -12 16 1 8 13 -8 13 -7 1 8 -10 12
-10 17 -1 17 6 0 10 6 7 13 -2 6 0 22 5 35 8 23 15 74 20 140 1 17 6 32 11 32
5 0 6 9 2 19 -3 11 -1 22 4 25 6 4 8 12 5 20 -3 7 2 13 9 13 12 0 13 -6 4 -31z
m475 -431 c2 -19 -1 -40 -6 -45 -7 -7 -6 -10 3 -10 8 0 11 -18 10 -63 -1 -35
2 -70 7 -78 5 -8 10 -39 11 -69 1 -30 2 -55 3 -55 1 0 3 -29 6 -63 3 -35 9
-75 14 -88 6 -16 6 -24 -1 -24 -6 0 -6 -6 1 -19 5 -11 10 -33 10 -50 0 -17 5
-31 12 -31 6 0 8 -3 5 -6 -3 -4 -2 -15 4 -25 6 -12 6 -19 0 -19 -6 0 -4 -15 5
-35 8 -19 11 -35 7 -35 -4 0 -2 -5 5 -12 14 -14 16 -32 3 -23 -5 3 -2 -9 7
-27 9 -18 17 -41 17 -51 1 -11 8 -22 15 -27 7 -5 13 -26 13 -49 0 -39 9 -53
20 -31 3 6 4 5 3 -2 -2 -7 3 -20 10 -28 21 -25 48 -93 32 -84 -7 4 -4 -3 7
-16 11 -13 15 -20 8 -17 -13 8 -6 -30 8 -39 5 -3 6 3 3 13 -3 10 2 7 10 -7 20
-32 20 -44 1 -36 -10 4 -7 -6 10 -28 14 -18 25 -36 25 -40 0 -4 8 -16 19 -27
10 -11 31 -45 47 -77 16 -31 43 -77 60 -102 16 -25 34 -52 38 -60 9 -17 -49
45 -81 88 -29 38 -123 201 -123 213 0 5 -3 9 -7 9 -5 0 -23 33 -41 73 -19 39
-38 81 -44 91 -9 16 -7 18 12 13 14 -3 20 -1 17 6 -3 7 -10 11 -16 9 -7 -1
-10 2 -6 7 7 12 -30 52 -39 43 -3 -3 -7 0 -7 6 -2 17 -4 24 -17 52 -9 21 -16
45 -27 90 0 3 -6 15 -13 28 -7 12 -11 22 -8 22 3 0 -1 21 -9 48 -7 26 -15 61
-17 77 -1 17 -6 32 -10 35 -4 3 -9 22 -11 41 -2 20 -7 42 -12 49 -4 6 -9 56
-10 109 -2 71 -6 95 -15 93 -8 -2 -10 3 -7 13 4 8 2 15 -4 15 -6 0 -7 5 -2 13
4 6 6 48 5 92 -2 47 2 93 9 110 7 17 11 40 10 53 -4 37 16 25 21 -13z m-492
15 c0 -5 -5 -10 -11 -10 -5 0 -7 5 -4 10 3 6 8 10 11 10 2 0 4 -4 4 -10z m-5
-210 c3 -5 1 -10 -4 -10 -6 0 -11 5 -11 10 0 6 2 10 4 10 3 0 8 -4 11 -10z
m-2 -125 c-7 -21 -12 -19 -10 4 0 11 5 18 9 15 4 -3 5 -11 1 -19z m-89 -20 c3
-9 0 -15 -9 -15 -8 0 -15 7 -15 15 0 8 4 15 9 15 5 0 11 -7 15 -15z m1 -47
c11 -36 16 -97 6 -73 -5 11 -7 23 -4 27 7 12 -17 49 -27 43 -6 -3 -7 1 -4 9 9
23 21 20 29 -6z m19 -114 c5 -14 4 -15 -9 -4 -17 14 -19 20 -6 20 5 0 12 -7
15 -16z m1084 -45 c-3 -8 -7 -3 -11 10 -4 17 -3 21 5 13 5 -5 8 -16 6 -23z
m42 -164 c0 -5 -5 -3 -10 5 -5 8 -10 20 -10 25 0 6 5 3 10 -5 5 -8 10 -19 10
-25z m-49 -847 c19 -24 26 -37 16 -29 -20 16 -61 71 -54 71 3 0 20 -19 38 -42z
m104 -119 c22 -23 31 -36 20 -29 -19 12 -71 70 -63 70 2 0 22 -19 43 -41z
m141 -124 c30 -29 41 -45 31 -45 -9 0 -21 9 -27 20 -6 12 -16 18 -23 14 -7 -4
-9 -3 -4 1 4 5 -3 19 -15 32 -37 40 -12 25 38 -22z m2279 -145 c-3 -5 -12 -10
-18 -10 -7 0 -6 4 3 10 19 12 23 12 15 0z m-2310 -260 c3 -5 1 -10 -4 -10 -6
0 -11 5 -11 10 0 6 2 10 4 10 3 0 8 -4 11 -10z"/>
<path d="M1037 2845 c-4 -8 -2 -17 3 -20 6 -4 10 3 10 14 0 25 -6 27 -13 6z"/>
<path d="M1205 2280 c-3 -5 -1 -10 4 -10 6 0 11 5 11 10 0 6 -2 10 -4 10 -3 0
-8 -4 -11 -10z"/>
<path d="M3486 5948 c3 -5 10 -6 15 -3 13 9 11 12 -6 12 -8 0 -12 -4 -9 -9z"/>
<path d="M3540 5956 c0 -2 7 -6 15 -10 8 -3 15 -1 15 4 0 6 -7 10 -15 10 -8 0
-15 -2 -15 -4z"/>
<path d="M3595 5950 c-2 -3 17 -7 42 -9 26 -1 50 -4 55 -7 4 -3 16 0 25 6 12
8 13 10 3 7 -8 -2 -39 -1 -68 3 -29 3 -55 4 -57 0z"/>
<path d="M3748 5928 c5 -5 16 -8 23 -6 8 3 3 7 -10 11 -17 4 -21 3 -13 -5z"/>
<path d="M4062 5927 c-16 -19 6 -38 83 -73 43 -19 75 -27 114 -26 40 0 63 -5
83 -19 15 -11 28 -18 28 -15 0 3 23 -3 51 -14 63 -25 62 -6 -2 26 -225 115
-332 151 -357 121z"/>
<path d="M2645 5920 c-3 -6 1 -7 9 -4 18 7 21 14 7 14 -6 0 -13 -4 -16 -10z"/>
<path d="M3790 5921 c0 -6 9 -11 20 -11 10 0 45 -7 77 -16 32 -8 66 -17 76
-19 17 -4 178 -51 207 -61 11 -4 12 -2 4 6 -6 6 -18 12 -25 13 -8 2 -21 7 -29
12 -8 5 -19 10 -25 12 -5 1 -37 8 -70 17 -33 8 -91 22 -130 31 -38 9 -78 18
-87 21 -10 3 -18 1 -18 -5z"/>
<path d="M4610 5740 c0 -5 19 -15 43 -21 23 -7 48 -17 56 -23 12 -9 13 -8 7 2
-5 8 -28 22 -53 33 -52 22 -53 22 -53 9z"/>
<path d="M4180 5696 c0 -2 7 -7 16 -10 8 -3 12 -2 9 4 -6 10 -25 14 -25 6z"/>
<path d="M4280 5660 c8 -5 20 -10 25 -10 6 0 3 5 -5 10 -8 5 -19 10 -25 10 -5
0 -3 -5 5 -10z"/>
<path d="M3983 5654 c5 -5 12 -9 15 -9 18 -1 152 -50 187 -69 22 -11 49 -22
60 -24 10 -1 31 -10 45 -20 14 -9 37 -22 53 -29 15 -7 27 -17 27 -23 0 -13 2
-14 -60 18 -30 16 -58 30 -62 31 -4 1 -29 11 -54 22 -26 11 -54 21 -63 23 -9
2 -23 6 -31 9 -21 8 -192 60 -208 63 -8 1 -12 0 -9 -3 3 -2 8 -5 11 -4 3 0 33
-11 68 -25 34 -13 70 -24 80 -24 10 0 18 -4 18 -8 0 -5 23 -14 50 -21 47 -12
147 -60 234 -112 22 -13 37 -19 34 -13 -4 5 -3 16 1 23 7 10 14 11 32 1 23
-11 11 2 -50 52 -21 17 -109 58 -126 58 -26 0 -99 41 -87 49 7 4 -4 7 -23 8
-20 1 -41 6 -48 12 -16 13 -105 27 -94 15z"/>
<path d="M3870 5620 c0 -6 7 -10 15 -10 8 0 15 2 15 4 0 2 -7 6 -15 10 -8 3
-15 1 -15 -4z"/>
<path d="M4495 5573 c22 -15 46 -27 55 -28 8 -1 34 -13 57 -28 24 -15 51 -27
60 -27 24 0 -90 68 -152 92 -65 24 -67 23 -20 -9z"/>
<path d="M4037 5519 c7 -7 15 -10 18 -7 3 3 -2 9 -12 12 -14 6 -15 5 -6 -5z"/>
<path d="M4480 5500 c0 -5 7 -10 16 -10 8 0 12 5 9 10 -3 6 -10 10 -16 10 -5
0 -9 -4 -9 -10z"/>
<path d="M4670 5476 c0 -2 8 -10 18 -17 15 -13 16 -12 3 4 -13 16 -21 21 -21
13z"/>
<path d="M4430 5395 c7 -8 17 -15 22 -15 14 0 148 -93 148 -103 0 -4 -9 -3
-20 3 -34 18 -22 4 21 -25 23 -15 60 -44 83 -64 22 -20 53 -43 68 -50 15 -8
24 -19 21 -25 -3 -6 -3 -8 2 -4 4 4 19 -5 31 -20 13 -15 24 -22 24 -16 0 14
-40 49 -133 118 -42 32 -75 62 -71 67 7 12 -45 56 -108 92 -27 15 -52 35 -55
42 -3 8 -14 15 -25 15 -17 0 -18 -3 -8 -15z"/>
<path d="M4593 5395 c0 -9 13 -23 29 -33 15 -9 28 -22 28 -29 0 -7 3 -13 8
-14 4 0 26 -2 49 -4 41 -3 72 -22 162 -100 65 -57 86 -75 96 -82 6 -5 21 -17
34 -28 l24 -20 -11 21 c-31 59 -169 217 -183 209 -4 -3 -47 15 -96 40 -105 53
-140 63 -140 40z m38 -22 c13 -17 13 -17 -6 -3 -11 8 -22 16 -24 17 -2 2 0 3
6 3 6 0 17 -8 24 -17z"/>
<path d="M4725 5384 c11 -9 32 -22 47 -30 24 -13 27 -12 22 1 -4 8 -15 15 -25
15 -10 0 -19 4 -19 9 0 5 -10 11 -22 14 -23 6 -23 6 -3 -9z"/>
<path d="M4873 5330 c14 -11 28 -20 32 -20 4 0 -4 9 -18 20 -14 11 -28 20 -32
20 -4 0 4 -9 18 -20z"/>
<path d="M4390 5331 c0 -6 5 -11 11 -11 5 0 7 -5 3 -12 -4 -7 -3 -8 4 -4 7 4
12 2 12 -5 0 -8 3 -9 13 0 8 6 18 7 23 3 4 -4 2 1 -5 10 -7 10 -17 15 -23 12
-5 -3 -15 0 -23 6 -11 9 -15 9 -15 1z"/>
<path d="M4495 5263 c21 -21 85 -54 85 -45 0 5 -7 15 -15 22 -8 7 -15 10 -15
6 0 -4 -15 1 -32 10 -18 9 -28 12 -23 7z"/>
<path d="M4849 5177 c14 -18 51 -42 51 -33 0 3 -15 15 -32 27 -24 17 -29 18
-19 6z"/>
<path d="M871 5152 c-17 -31 -13 -40 5 -14 9 13 14 26 11 29 -3 2 -10 -4 -16
-15z"/>
<path d="M5250 5045 c0 -3 9 -15 20 -27 17 -18 20 -19 20 -5 0 9 -9 21 -20 27
-11 6 -20 8 -20 5z"/>
<path d="M1054 4980 c-12 -5 -25 -14 -29 -20 -6 -9 -2 -9 14 -1 12 7 26 9 31
6 5 -3 11 -1 14 4 9 14 -6 20 -30 11z"/>
<path d="M2633 4510 c-13 -5 -23 -14 -23 -20 0 -12 35 3 45 20 7 12 7 12 -22
0z"/>
<path d="M4945 4360 c3 -5 8 -10 11 -10 2 0 4 5 4 10 0 6 -5 10 -11 10 -5 0
-7 -4 -4 -10z"/>
<path d="M4104 4353 c4 -6 0 -18 -7 -25 -11 -10 -12 -15 -1 -25 32 -32 48 6
18 43 -8 10 -13 14 -10 7z"/>
<path d="M4220 4356 c0 -2 7 -7 16 -10 8 -3 12 -2 9 4 -6 10 -25 14 -25 6z"/>
<path d="M2149 4313 c-13 -16 -12 -17 4 -4 16 13 21 21 13 21 -2 0 -10 -8 -17
-17z"/>
<path d="M5205 4158 c8 -21 15 -47 15 -59 0 -12 3 -20 6 -16 10 9 -4 71 -21
93 -13 17 -13 14 0 -18z"/>
<path d="M1909 4143 c-13 -16 -12 -17 4 -4 9 7 17 15 17 17 0 8 -8 3 -21 -13z"/>
<path d="M1807 4035 c-4 -8 -3 -16 1 -19 4 -3 9 4 9 15 2 23 -3 25 -10 4z"/>
<path d="M5201 3953 c11 -34 19 -42 19 -20 0 7 -7 22 -15 33 -13 17 -14 16 -4
-13z"/>
<path d="M4446 3912 c-3 -5 1 -9 9 -9 8 0 12 4 9 9 -3 4 -7 8 -9 8 -2 0 -6 -4
-9 -8z"/>
<path d="M4450 3860 c0 -5 5 -10 11 -10 5 0 7 5 4 10 -3 6 -8 10 -11 10 -2 0
-4 -4 -4 -10z"/>
<path d="M1718 3843 c7 -3 16 -2 19 1 4 3 -2 6 -13 5 -11 0 -14 -3 -6 -6z"/>
<path d="M1757 3783 c-4 -3 -7 -11 -7 -17 0 -6 5 -5 12 2 6 6 9 14 7 17 -3 3
-9 2 -12 -2z"/>
<path d="M1719 3703 c-11 -27 -27 -60 -34 -75 -10 -21 -10 -28 -2 -28 9 0 9
-2 1 -8 -6 -4 -8 -16 -4 -27 5 -14 14 4 35 70 15 50 32 96 37 103 7 8 7 12 -1
12 -6 0 -20 -21 -32 -47z"/>
<path d="M4789 3708 c-8 -34 -7 -38 6 -28 10 8 15 7 19 -2 3 -7 5 -4 3 6 -2
16 -25 36 -28 24z"/>
<path d="M409 3688 c0 -2 -2 -14 -5 -28 -2 -14 -6 -37 -9 -52 -2 -16 -1 -28 3
-28 4 0 9 15 10 33 1 18 4 43 7 55 2 12 2 22 -1 22 -2 0 -4 -1 -5 -2z"/>
<path d="M4935 3640 c3 -5 8 -10 11 -10 2 0 4 5 4 10 0 6 -5 10 -11 10 -5 0
-7 -4 -4 -10z"/>
<path d="M4898 3615 c-3 -11 -6 -56 -8 -100 -1 -44 -3 -82 -5 -85 -2 -4 -6
-20 -9 -36 -3 -16 -10 -30 -16 -32 -14 -5 -13 -102 1 -102 7 0 8 14 4 41 -5
29 -4 40 4 35 6 -4 14 -25 17 -47 4 -22 11 -42 15 -45 5 -3 9 -14 9 -25 0 -11
4 -18 9 -15 4 3 6 17 3 31 -3 20 -1 24 12 19 9 -3 16 -10 16 -15 0 -5 5 -9 10
-9 17 0 11 40 -14 90 -21 42 -24 58 -21 152 2 65 -2 115 -10 134 -10 26 -12
27 -17 9z"/>
<path d="M5410 3020 c0 -5 5 -10 11 -10 5 0 7 5 4 10 -3 6 -8 10 -11 10 -2 0
-4 -4 -4 -10z"/>
<path d="M5577 2445 c-4 -8 -3 -16 1 -19 4 -3 9 4 9 15 2 23 -3 25 -10 4z"/>
<path d="M615 2401 c-3 -5 -2 -12 3 -15 5 -3 9 1 9 9 0 17 -3 19 -12 6z"/>
<path d="M630 2316 c0 -2 7 -9 15 -16 13 -11 14 -10 9 4 -5 14 -24 23 -24 12z"/>
<path d="M630 2270 c0 -5 5 -10 11 -10 5 0 7 5 4 10 -3 6 -8 10 -11 10 -2 0
-4 -4 -4 -10z"/>
<path d="M5159 2230 c-26 -27 -30 -48 -9 -43 10 3 21 16 25 30 8 32 4 34 -16
13z"/>
<path d="M708 2168 c-7 -18 1 -38 15 -38 8 0 8 3 0 11 -6 6 -9 18 -6 25 3 8 3
14 0 14 -3 0 -7 -6 -9 -12z"/>
<path d="M1766 2132 c-3 -5 1 -9 9 -9 8 0 12 4 9 9 -3 4 -7 8 -9 8 -2 0 -6 -4
-9 -8z"/>
<path d="M1876 2085 c4 -8 10 -15 16 -15 5 0 6 -5 2 -12 -5 -7 -3 -8 5 -4 9 6
8 13 -5 27 -21 23 -25 24 -18 4z"/>
<path d="M570 2085 c0 -4 9 -18 20 -32 11 -14 20 -22 20 -18 0 4 -9 18 -20 32
-11 14 -20 22 -20 18z"/>
<path d="M1180 2041 c15 -30 30 -35 17 -6 -7 14 -16 25 -20 25 -4 0 -3 -9 3
-19z"/>
<path d="M630 2035 c0 -5 5 -17 10 -25 5 -8 10 -10 10 -5 0 6 -5 17 -10 25 -5
8 -10 11 -10 5z"/>
<path d="M1960 1996 c0 -2 8 -10 18 -17 15 -13 16 -12 3 4 -13 16 -21 21 -21
13z"/>
<path d="M659 1972 c6 -12 16 -24 22 -28 8 -4 8 -1 0 14 -6 12 -16 24 -22 28
-8 4 -8 1 0 -14z"/>
<path d="M4902 1979 c2 -6 8 -10 13 -10 5 0 11 4 13 10 2 6 -4 11 -13 11 -9 0
-15 -5 -13 -11z"/>
<path d="M2055 1830 c10 -11 20 -20 23 -20 3 0 -3 9 -13 20 -10 11 -20 20 -23
20 -3 0 3 -9 13 -20z"/>
<path d="M2120 1836 c0 -2 7 -7 16 -10 8 -3 12 -2 9 4 -6 10 -25 14 -25 6z"/>
<path d="M910 1723 c0 -6 8 -17 18 -24 16 -13 16 -13 2 6 -8 11 -16 22 -17 24
-2 2 -3 0 -3 -6z"/>
<path d="M966 1647 c3 -10 9 -15 12 -12 3 3 0 11 -7 18 -10 9 -11 8 -5 -6z"/>
<path d="M1031 1553 c8 -13 17 -23 22 -23 4 0 5 -4 2 -10 -3 -5 -1 -10 4 -10
18 0 12 15 -15 41 -26 23 -26 23 -13 2z"/>
<path d="M919 1383 c11 -23 27 -46 34 -50 7 -4 28 -27 47 -51 26 -32 38 -41
54 -36 17 4 18 3 6 -6 -13 -9 -13 -12 4 -25 10 -7 15 -18 12 -24 -4 -6 13 -19
36 -30 59 -28 85 -51 98 -85 6 -16 14 -26 17 -22 4 3 24 -10 45 -31 21 -20 38
-34 38 -30 0 4 -19 25 -41 47 -23 22 -38 40 -34 40 4 0 -13 19 -37 43 -24 23
-68 71 -98 106 -30 36 -70 80 -87 98 -18 18 -33 36 -33 41 0 5 -10 17 -22 28
-23 19 -23 19 -8 -1 27 -36 40 -65 30 -65 -5 0 -17 12 -27 28 -10 15 -26 36
-37 47 -16 18 -16 15 3 -22z"/>
<path d="M4205 1390 c-3 -6 1 -7 9 -4 18 7 21 14 7 14 -6 0 -13 -4 -16 -10z"/>
<path d="M1176 1366 c3 -8 13 -17 22 -21 13 -5 13 -2 -3 15 -21 24 -26 25 -19
6z"/>
<path d="M1230 1306 c0 -2 7 -9 15 -16 13 -11 14 -10 9 4 -5 14 -24 23 -24 12z"/>
<path d="M1290 1251 c0 -6 4 -13 10 -16 6 -3 7 1 4 9 -7 18 -14 21 -14 7z"/>
<path d="M1354 1177 c10 -7 28 -23 40 -35 12 -13 50 -47 86 -74 l65 -51 -45
47 c-24 25 -48 46 -52 46 -4 0 -25 18 -47 40 -21 22 -45 40 -52 39 -9 0 -7 -4
5 -12z"/>
<path d="M2304 1121 c16 -11 47 -27 70 -36 22 -9 56 -23 74 -31 18 -8 37 -14
43 -14 6 0 25 -6 42 -13 52 -22 123 -44 167 -51 8 -2 40 -6 70 -10 30 -5 70
-14 88 -22 27 -11 32 -11 32 2 0 7 -3 13 -7 12 -5 -1 -33 4 -63 11 -30 7 -68
14 -85 17 -62 8 -104 20 -190 54 -11 4 -40 14 -65 21 -40 11 -124 45 -172 70
-31 16 -34 9 -4 -10z"/>
<path d="M2240 1116 c0 -3 9 -10 20 -16 11 -6 20 -8 20 -6 0 3 -9 10 -20 16
-11 6 -20 8 -20 6z"/>
<path d="M2354 1055 c11 -8 25 -15 30 -15 6 0 2 7 -8 15 -11 8 -25 15 -30 15
-6 0 -2 -7 8 -15z"/>
<path d="M2200 1006 c0 -2 9 -6 20 -9 11 -3 18 -1 14 4 -5 9 -34 13 -34 5z"/>
<path d="M3226 972 c-3 -5 1 -9 9 -9 8 0 12 4 9 9 -3 4 -7 8 -9 8 -2 0 -6 -4
-9 -8z"/>
<path d="M3385 929 c-3 -4 2 -6 10 -5 21 3 28 13 10 13 -9 0 -18 -4 -20 -8z"/>
<path d="M3438 933 c6 -2 18 -2 25 0 6 3 1 5 -13 5 -14 0 -19 -2 -12 -5z"/>
<path d="M3140 926 c0 -2 7 -6 15 -10 8 -3 15 -1 15 4 0 6 -7 10 -15 10 -8 0
-15 -2 -15 -4z"/>
<path d="M3180 926 c0 -9 40 -13 46 -5 3 5 -6 9 -20 9 -14 0 -26 -2 -26 -4z"/>
<path d="M3240 922 c0 -8 101 -5 109 4 2 2 -21 4 -52 4 -31 0 -57 -4 -57 -8z"/>
<path d="M1370 891 c0 -5 9 -13 20 -16 11 -4 28 -17 36 -31 9 -13 21 -24 27
-24 6 0 -2 14 -19 31 -34 36 -64 55 -64 40z"/>
<path d="M2880 710 c8 -5 20 -10 25 -10 6 0 3 5 -5 10 -8 5 -19 10 -25 10 -5
0 -3 -5 5 -10z"/>
<path d="M1635 690 c3 -4 14 -10 25 -13 11 -3 18 -2 15 3 -3 4 -14 10 -25 13
-11 3 -18 2 -15 -3z"/>
<path d="M2656 278 c3 -4 9 -8 15 -8 5 0 9 4 9 8 0 5 -7 9 -15 9 -8 0 -12 -4
-9 -9z"/>
<path d="M2692 280 c5 -15 20 -19 91 -24 64 -5 46 10 -20 17 -29 3 -58 9 -64
13 -7 4 -10 2 -7 -6z"/>
<path d="M2865 246 c17 -8 32 -12 34 -10 7 6 -2 11 -34 17 l-30 6 30 -13z"/>
<path d="M2910 246 c0 -2 7 -7 16 -10 8 -3 12 -2 9 4 -6 10 -25 14 -25 6z"/>
<path d="M2950 240 c0 -5 5 -10 10 -10 6 0 10 5 10 10 0 6 -4 10 -10 10 -5 0
-10 -4 -10 -10z"/>
</g>
</svg>
